<?xml version="1.0" standalone="no"?>
<!DOCTYPE svg PUBLIC "-//W3C//DTD SVG 20010904//EN"
 "http://www.w3.org/TR/2001/REC-SVG-20010904/DTD/svg10.dtd">
<svg version="1.0" xmlns="http://www.w3.org/2000/svg"
 width="700.000000pt" height="700.000000pt" viewBox="0 0 700.000000 700.000000"
 preserveAspectRatio="xMidYMid meet">
<metadata>
Created by potrace 1.14, written by Peter Selinger 2001-2017
</metadata>
<g transform="translate(0.000000,700.000000) scale(0.100000,-0.100000)"
fill="#000000" stroke="none">
<path d="M3231 6114 c-99 -22 -182 -91 -227 -189 -29 -65 -33 -91 -35 -265 -1
-163 -11 -202 -69 -274 -87 -108 -228 -147 -362 -100 -41 15 -76 42 -166 129
-132 127 -138 132 -201 154 -96 36 -227 21 -308 -34 -51 -34 -377 -356 -406
-400 -56 -87 -65 -213 -23 -309 19 -43 55 -87 141 -177 75 -77 124 -136 137
-166 24 -54 31 -143 16 -204 -26 -104 -128 -206 -228 -228 -25 -6 -110 -11
-188 -12 -79 0 -160 -5 -180 -10 -118 -31 -215 -126 -244 -240 -10 -40 -14
-122 -13 -309 l1 -255 28 -62 c34 -75 94 -134 174 -171 53 -24 71 -26 242 -32
209 -7 245 -17 322 -92 62 -61 93 -137 92 -228 0 -109 -22 -149 -150 -279 -58
-60 -115 -122 -125 -137 -66 -100 -67 -253 -4 -354 13 -21 106 -120 207 -220
191 -191 233 -222 330 -238 58 -10 147 3 205 30 29 14 94 67 163 133 119 114
157 140 234 154 111 21 235 -28 309 -121 52 -65 65 -124 66 -294 2 -158 13
-223 48 -275 56 -82 117 -128 198 -152 39 -11 109 -14 310 -12 143 1 274 7
291 13 72 23 149 87 189 157 36 60 44 114 48 290 3 152 4 163 31 217 72 147
242 217 397 162 44 -15 76 -40 169 -130 152 -146 200 -173 311 -176 137 -3
185 26 411 251 153 152 192 198 212 243 41 93 40 202 -4 293 -11 22 -72 94
-136 158 -127 129 -151 170 -159 265 -8 106 41 213 128 278 67 50 114 60 290
63 130 2 169 6 212 22 75 28 136 85 171 161 l29 63 3 275 c2 225 -1 284 -14
328 -28 99 -84 165 -174 205 -38 17 -75 22 -230 27 -174 6 -188 8 -236 33
-111 57 -183 179 -178 301 4 92 38 149 160 268 151 148 197 255 165 386 -22
89 -44 117 -235 309 -232 232 -258 248 -401 248 -127 0 -169 -22 -309 -160
-132 -130 -184 -159 -291 -159 -115 0 -225 63 -279 159 -35 63 -39 91 -41 260
-2 159 -12 215 -49 274 -47 74 -133 140 -207 157 -46 11 -518 10 -568 -2z
m414 -1529 c232 -26 478 -147 642 -316 160 -166 275 -389 299 -579 3 -25 9
-61 13 -80 14 -75 2 -258 -25 -365 -95 -379 -370 -674 -733 -785 -53 -16 -125
-34 -161 -40 -69 -12 -248 -15 -315 -5 -69 10 -197 45 -264 72 -59 24 -200 98
-211 112 -3 3 -30 25 -61 49 -188 142 -332 375 -389 627 -36 162 -26 382 26
548 159 506 646 821 1179 762z"/>
</g>
</svg>
